<svg xmlns="http://www.w3.org/2000/svg" xmlns:xlink="http://www.w3.org/1999/xlink" version="1.1" x="0px" y="0px"  style="enable-background:new 0 0 64 64;" xml:space="preserve"><g><path d="M26.474,38.851C26.635,38.95,26.817,39,27,39c0.153,0,0.306-0.035,0.447-0.105l10-5C37.786,33.725,38,33.379,38,33   s-0.214-0.725-0.553-0.895l-10-5c-0.31-0.154-0.678-0.138-0.973,0.044C26.18,27.332,26,27.653,26,28v10   C26,38.347,26.18,38.668,26.474,38.851z M28,29.618L34.764,33L28,36.382V29.618z"/><path d="M56.385,18.077l-24-10c0,0,0,0,0,0c-0.121-0.05-0.251-0.076-0.384-0.076c-0.133,0-0.264,0.026-0.385,0.076c0,0,0,0,0,0   l-24,10C7.243,18.232,7,18.596,7,19v3c0,0.334,0.167,0.646,0.445,0.832C7.612,22.943,7.805,23,8,23c0.13,0,0.261-0.025,0.385-0.077   L11,21.833V54c0,0.552,0.448,1,1,1h3h34h3c0.552,0,1-0.448,1-1V21.833l2.615,1.09C55.739,22.975,55.87,23,56,23   c0.194,0,0.388-0.057,0.555-0.168C56.833,22.646,57,22.334,57,22v-3C57,18.596,56.757,18.232,56.385,18.077z M13,21l1-0.417V24v18   v11h-1V21z M32,13.083l16,6.667v0.807C47.409,20.212,46.732,20,46,20H18c-0.732,0-1.409,0.212-2,0.556V19.75L32,13.083z M23,22v2   h-2v-2H23z M27,22v2h-2v-2H27z M31,22v2h-2v-2H31z M35,22v2h-2v-2H35z M39,22v2h-2v-2H39z M43,22v2h-2v-2H43z M46,22   c1.103,0,2,0.897,2,2h-3v-2H46z M41,44v-2h2v2H41z M37,44v-2h2v2H37z M33,44v-2h2v2H33z M29,44v-2h2v2H29z M25,44v-2h2v2H25z    M21,44v-2h2v2H21z M18,44c-1.103,0-2-0.897-2-2h3v2H18z M48,26v14H16V26H48z M45,42h3c0,1.103-0.897,2-2,2h-1V42z M19,24h-3   c0-1.103,0.897-2,2-2h1V24z M16,45.444C16.591,45.788,17.268,46,18,46h28c0.732,0,1.409-0.212,2-0.556V53H16V45.444z M51,53h-1V42   V24v-3.417L51,21V53z M55,20.5l-22.615-9.423c-0.121-0.05-0.251-0.077-0.384-0.077c-0.134,0-0.264,0.026-0.386,0.077L9,20.5v-0.833   l23-9.583l23,9.583V20.5z"/></g></svg>